<?xml version="1.0" standalone="no"?>
<!DOCTYPE svg PUBLIC "-//W3C//DTD SVG 20010904//EN"
 "http://www.w3.org/TR/2001/REC-SVG-20010904/DTD/svg10.dtd">
<svg version="1.0" xmlns="http://www.w3.org/2000/svg"
 width="16.000000pt" height="16.000000pt" viewBox="0 0 16.000000 16.000000"
 preserveAspectRatio="xMidYMid meet">
<metadata>
Created by potrace 1.11, written by Peter Selinger 2001-2013
</metadata>
<g transform="translate(0.000000,16.000000) scale(0.005926,-0.005926)"
fill="#000000" stroke="none">
<path d="M317 2686 c-142 -51 -289 -209 -312 -336 l-6 -35 958 -955 958 -955
212 -145 c117 -80 233 -152 258 -161 24 -8 48 -18 52 -22 3 -4 -539 -7 -1205
-7 l-1212 0 0 -35 0 -35 1331 2 c1228 3 1333 4 1342 20 11 16 -1 53 -87 283
-14 38 -81 145 -179 285 l-156 225 -870 870 c-819 818 -869 870 -854 887 9 10
19 18 24 18 4 0 182 -175 397 -390 l389 -389 26 27 27 28 -413 412 c-227 227
-419 412 -428 412 -8 0 -33 -18 -54 -40 l-39 -40 -46 45 c-50 49 -56 51 -113
31z m951 -969 l904 -904 -49 -28 c-26 -15 -65 -41 -86 -58 -40 -31 -120 -137
-131 -174 -4 -13 -10 -23 -14 -23 -4 0 -414 407 -912 905 l-904 904 29 61 c35
73 114 154 187 192 29 15 58 27 63 28 6 0 417 -407 913 -903z m1090 -1157 c73
-104 132 -192 132 -195 0 -3 -6 -5 -13 -5 -21 0 -93 -66 -118 -108 -12 -20
-23 -38 -25 -40 -1 -2 -33 19 -71 45 -37 27 -123 86 -190 132 -118 80 -121 84
-112 109 33 87 109 172 199 221 30 17 58 31 61 31 3 0 65 -85 137 -190z m203
-344 c15 -42 31 -86 34 -97 6 -17 -3 -15 -91 16 -53 19 -99 37 -102 40 -16 15
98 130 121 122 5 -1 22 -38 38 -81z"/>
</g>
</svg>
