<?xml version="1.0" standalone="no"?>
<!DOCTYPE svg PUBLIC "-//W3C//DTD SVG 20010904//EN"
 "http://www.w3.org/TR/2001/REC-SVG-20010904/DTD/svg10.dtd">
<svg version="1.0" xmlns="http://www.w3.org/2000/svg"
 width="769.000000pt" height="769.000000pt" viewBox="0 0 769.000000 769.000000"
 preserveAspectRatio="xMidYMid meet">
<metadata>
Created by potrace 1.11, written by Peter Selinger 2001-2013
</metadata>
<g transform="translate(0.000000,769.000000) scale(0.100000,-0.100000)"
fill="#000000" stroke="none">
<path d="M2719 7207 c0 -7 -2 -20 -4 -30 -2 -10 -6 -48 -9 -85 -3 -37 -8 -78
-10 -92 -2 -14 -7 -50 -10 -80 -12 -112 -18 -156 -22 -187 -2 -18 -7 -63 -10
-100 -4 -37 -8 -75 -10 -83 -1 -8 -3 -25 -3 -37 -1 -16 -9 -25 -28 -29 -55
-13 -280 -105 -376 -153 l-98 -50 -217 166 c-119 92 -242 186 -273 210 -30 23
-58 43 -62 43 -4 0 -58 -38 -120 -84 -322 -239 -546 -468 -782 -796 -78 -109
-86 -123 -72 -138 35 -42 417 -523 417 -526 0 -2 -18 -44 -41 -93 -66 -142
-102 -232 -144 -360 -13 -42 -21 -53 -38 -54 -12 0 -31 -2 -42 -4 -11 -2 -62
-9 -114 -15 -51 -7 -103 -13 -113 -15 -11 -3 -46 -7 -77 -11 -53 -6 -83 -10
-141 -19 -14 -2 -50 -6 -80 -10 -79 -9 -89 -11 -94 -16 -6 -5 -31 -159 -41
-244 -3 -27 -8 -59 -10 -70 -8 -38 -18 -241 -18 -355 0 -119 12 -361 19 -371
2 -3 6 -32 9 -64 5 -50 45 -297 49 -301 0 -1 35 -5 76 -9 41 -4 84 -9 95 -11
10 -2 51 -6 90 -10 38 -3 78 -8 87 -9 9 -2 48 -7 85 -10 37 -4 110 -13 162
-19 l94 -12 37 -104 c41 -118 87 -225 136 -318 19 -35 34 -68 34 -73 0 -4 -75
-106 -167 -226 -91 -120 -186 -243 -209 -274 l-43 -56 101 -134 c182 -243 378
-448 604 -630 77 -63 294 -219 303 -219 3 0 17 10 31 23 14 12 134 109 268
215 l243 193 94 -45 c102 -49 354 -146 379 -146 19 0 25 -9 30 -51 3 -19 8
-52 11 -74 3 -22 8 -65 11 -95 3 -30 7 -65 9 -78 2 -13 7 -53 10 -90 3 -37 8
-76 10 -87 2 -11 7 -49 10 -85 3 -36 8 -74 10 -85 2 -11 7 -49 11 -85 3 -36 8
-68 10 -71 2 -4 1090 -6 2419 -6 2214 0 2415 1 2415 16 1 9 1 1192 2 2628 l1
2613 -744 744 -744 744 -1703 0 c-1283 0 -1702 -3 -1703 -11z m3062 -505 c0
-20 1 -324 1 -674 1 -579 2 -638 17 -639 9 0 312 -1 674 -1 l657 -1 0 -41 c1
-42 1 -4307 0 -4362 l0 -31 -1965 0 -1965 -1 -1 22 c0 11 -2 28 -3 36 -2 8 -7
46 -11 84 -4 38 -9 79 -10 90 -2 12 -6 48 -10 80 -3 33 -7 73 -10 90 -6 46
-14 114 -21 176 -11 87 -11 94 -13 112 -1 12 -20 21 -73 33 -159 35 -207 48
-307 82 -192 65 -349 140 -514 245 -42 28 -83 48 -90 45 -6 -3 -97 -74 -202
-157 -282 -225 -305 -242 -314 -238 -35 13 -381 347 -381 368 0 6 208 283 263
350 7 8 40 51 74 96 l62 81 -22 34 c-24 39 -32 51 -111 183 -111 186 -185 371
-246 616 -17 69 -34 128 -38 131 -4 4 -37 10 -74 14 -37 3 -77 8 -90 10 -13 2
-54 6 -91 10 -37 3 -76 8 -85 10 -9 1 -48 6 -87 10 -73 7 -99 10 -177 20 -44
6 -48 9 -49 33 0 15 -2 38 -5 52 -8 51 -4 411 5 461 0 4 11 7 24 7 12 0 70 7
129 16 59 9 131 18 160 21 29 3 64 7 78 10 14 2 45 7 70 10 114 14 183 25 188
30 4 3 34 126 47 187 39 187 151 454 279 666 36 60 66 113 66 118 0 5 -13 25
-29 44 -75 91 -371 466 -371 471 0 3 21 30 46 60 123 145 322 333 338 320 45
-34 449 -343 478 -365 l38 -28 92 58 c262 166 444 244 738 318 l135 33 11 84
c11 79 19 155 30 259 2 25 6 54 8 65 2 11 7 58 11 105 4 47 11 92 16 101 7 15
126 16 1319 17 l1310 1 1 -37z m1004 -831 c-3 -2 -473 -4 -511 -2 -8 1 -11 77
-11 265 l0 265 263 -262 c144 -144 261 -264 259 -266z"/>
<path d="M3294 4421 c-177 -51 -316 -167 -388 -325 -39 -86 -45 -112 -53 -222
-21 -303 214 -585 515 -620 31 -3 60 -8 64 -10 4 -2 9 4 12 13 3 10 5 280 5
601 l-1 582 -46 -1 c-26 0 -74 -8 -108 -18z"/>
</g>
</svg>
