<?xml version="1.0" encoding="utf-8"?>
<!-- Generator: Adobe Illustrator 16.0.0, SVG Export Plug-In . SVG Version: 6.00 Build 0)  -->
<svg version="1.2" baseProfile="tiny" id="Layer_1" xmlns="http://www.w3.org/2000/svg" xmlns:xlink="http://www.w3.org/1999/xlink"
	 x="0px" y="0px" width="768px" height="768px" viewBox="0 0 768 768" xml:space="preserve">
<g>
	<polyline fill="none" stroke="#0054A6" stroke-width="48" stroke-miterlimit="10" points="601.867,70.813 601.867,205.813 
		736.867,205.813 	"/>
	<path fill="none" stroke="#0054A6" stroke-width="48" stroke-miterlimit="10" d="M736.867,205.813l-135-135H292.953l-7.688,67.5
		c-12.82,3.164-25.563,7.055-38.102,12.391c-12.539,5.305-24.234,11.773-35.406,18.805l-53.875-41.367
		c-26.711,19.781-49.57,43.273-68.336,69.586l42.273,53.086c-13.891,22.969-24.008,47.953-29.953,74.063l-67.266,8.875
		c-4.797,31.93-4.688,64.773,0.805,97.531l67.484,7.648c3.18,12.836,7.07,25.609,12.391,38.117s11.789,24.203,18.82,35.359
		l-41.367,53.906c19.75,26.688,43.289,49.57,69.602,68.32l53.086-42.242c22.922,13.883,47.938,23.992,74.07,29.906l8.836,74.891
		h438.539V205.813z"/>
	<path fill="#0054A6" d="M284.648,383.992c0,32.906,26.656,59.57,59.547,59.57V324.461
		C311.305,324.461,284.648,351.125,284.648,383.992z"/>
</g>
<g>
</g>
<g>
</g>
<g>
</g>
<g>
</g>
<g>
</g>
<g>
</g>
</svg>
